<?xml version="1.0" encoding="utf-8"?>
<!-- Generator: Adobe Illustrator 18.1.0, SVG Export Plug-In . SVG Version: 6.00 Build 0)  -->
<!DOCTYPE svg PUBLIC "-//W3C//DTD SVG 1.1//EN" "http://www.w3.org/Graphics/SVG/1.1/DTD/svg11.dtd">
<svg version="1.1" id="Layer_1" xmlns="http://www.w3.org/2000/svg" xmlns:xlink="http://www.w3.org/1999/xlink" x="0px" y="0px"
	 viewBox="0 0 200 200" enable-background="new 0 0 200 200" xml:space="preserve">
<circle fill="#FFFFFF" cx="99.5" cy="100.6" r="95.7"/>
<rect x="-422" y="19" fill="#FFFFFF" width="162" height="162"/>
<g>
	<path fill="#4B4B4B" d="M-358.6,100l-10.2-6.5l34.9-40C-325.8,72.4-358.6,99.3-358.6,100z"/>
	<path fill="#4B4B4B" d="M-287.2,114.8c-10.2,36.9-50.7,23.7-52.6,23l5.7,6.4c-9.3,2.9-20.6-6.1-20.6-6.1s0.8,24,26.1,42.9
		c-0.8-0.1-42.1,0-42.1,0c-1.2-11.3-3.3-19.8-8.7-36.6c-22.9-71.2,19.1-118.5,19.1-118.5c14.9,19.8-6.1,64.3-7.1,66.2l9.9,6.7l0,0
		c1.1,0.1,3.5-2.1,25.6,12.5C-309.9,125.7-287.2,114.8-287.2,114.8z"/>
</g>
<rect x="-260" y="19" fill="#F44EA8" width="162" height="162"/>
<g>
	<path fill="#FFFFFF" d="M-196.6,100l-10.2-6.5l34.9-40C-163.8,72.4-196.6,99.3-196.6,100z"/>
	<path fill="#FFFFFF" d="M-125.2,114.8c-10.2,36.9-50.7,23.7-52.6,23l5.7,6.4c-9.3,2.9-20.6-6.1-20.6-6.1s0.8,24,26.1,42.9
		c-0.8-0.1-42.1,0-42.1,0c-1.2-11.3-3.3-19.8-8.7-36.6c-22.9-71.2,19.1-118.5,19.1-118.5c14.9,19.8-6.1,64.3-7.1,66.2l9.9,6.7l0,0
		c1.1,0.1,3.5-2.1,25.6,12.5C-147.9,125.7-125.2,114.8-125.2,114.8z"/>
</g>
<path fill="#4B4B4B" d="M65.1,76H81V62.3c0-6.3-0.1-16,4.5-22c4.8-6.4,11.3-10.7,22.7-10.7c18.5,0,26.3,2.6,26.3,2.6L130.6,54
	c0,0-5.4-1.8-11.1-1.8c-5.7,0-10.1,2-10.1,7.8v16h21.9l-1.6,22.2h-20.2v72.9H81V98.2H65.1V76z"/>
</svg>
