<svg xmlns="http://www.w3.org/2000/svg" viewBox="0 0 191.6 291" enable-background="new 0 0 191.6 291"><g fill="#fff"><path d="M132.2 139.1l-.9.7c-.4-.3-.7-.5-1.2-.9 1 .1 1.6.2 2.1.2zM170.6 219c-9.3 29-14.2 53.3-16.4 73 0 .4-82.6 1.1-82.6 1.1l27-23.8c29.4-27.8 28.8-61.2 28.8-61.2s-19.8 15.8-36.1 10.6l10-11.1c-3.5 1.2-74.3 24.4-92.2-40.3 0 0 39.7 19.1 78.3-6.3 30-19.8 39.2-21.9 42.8-22l1.2.9-1.7 1.5 1.9-1.3-.2-.1.9-.7c-.4 0-1-.1-2-.1-13.1-10-51.6-50.2-39.4-79.1l58.6 67.3c-2.6-5.5-38-81.5-12.3-115.7-.1-.2 73.4 82.7 33.4 207.3zM132.2 139.1l-.9.7c-.4-.3-.7-.5-1.2-.9 1 .1 1.6.2 2.1.2z"/></g></svg>