<svg xmlns="http://www.w3.org/2000/svg" viewBox="0 0 288 288" enable-background="new 0 0 288 288"><g fill="#F44EA8"><path stroke="#F44EA8" stroke-width="2" stroke-miterlimit="10" d="M102.5 224.8c-1.4 0-2.7-1-3-2.4-.4-1.6.7-3.3 2.3-3.6l80.1-17.3c4.6-17 11-34.3 19.4-52.8 3.9-8.6 5.8-17.8 5.7-27.4-.2-16.8-6.9-32.7-18.9-44.8-12-12-27.9-18.8-44.7-19h-.9c-17.1 0-33.1 6.6-45.3 18.6-12.4 12.2-19.2 28.5-19.2 45.9 0 9.3 1.9 18.3 5.8 26.7 8 17.5 14.1 33.5 18.8 49.1l1.6 5.3c.5 1.5-.2 3.2-1.7 3.8-1.7.7-3.5-.2-4.1-1.9l-1.6-5.5c-4.6-15.3-10.6-31.1-18.5-48.3-4.2-9.2-6.3-19.1-6.3-29.3 0-19 7.5-36.9 21-50.3 13.6-13.4 31.5-20.6 50.6-20.3 18.4.3 35.8 7.7 48.9 20.8 13.1 13.2 20.4 30.6 20.7 49 .1 10.4-2 20.5-6.3 30-8.2 18.1-14.4 35-18.9 51.6-.3 1-.7 1.9-1.4 2.6-.9 1.1-2.2 1.8-3.6 2.1l-79.8 17.2c-.3.2-.5.2-.7.2zM102.5 246.8c-1.4 0-2.7-1-3-2.4-.4-1.6.7-3.3 2.3-3.6l81.9-17.7c1.6-.4 3.3.7 3.6 2.3s-.7 3.3-2.3 3.6l-81.9 17.7c-.2.1-.4.1-.6.1zM140.7 280.3c-13.4 0-25.9-6.5-33.7-17.4-1-1.4-.7-3.3.7-4.2 1.4-1 3.3-.7 4.2.7 6.6 9.3 17.3 14.8 28.7 14.8 16.8 0 31.4-12 34.6-28.5.3-1.6 1.9-2.7 3.6-2.4 1.6.3 2.7 1.9 2.4 3.6-3.7 19.3-20.7 33.4-40.5 33.4z"/><path d="M124.4 203h-.5c-1.7-.3-2.8-1.8-2.5-3.5 0-.3 4.5-27.3-5.3-53l-5.2-13.8 10.3 10.7c.9.9 21.8 21.9 44.9-.1l10.5-10-5.6 13.4c-.1.3-10.8 26.3-5.3 47.2.4 1.6-.5 3.3-2.2 3.7-1.6.4-3.3-.5-3.7-2.2-3.9-14.8-.6-31.2 2.3-41.3-11.3 6.9-21.7 5.9-29 3.5-3.1-1-5.9-2.4-8.2-3.8 6.4 24 2.8 45.9 2.6 46.9-.4 1.2-1.7 2.3-3.1 2.3zM80.3 63.5c-.4 0-.9-.1-1.2-.4l-26.1-27c-1-.7-1.2-2-.5-3s2-1.2 3-.5l26.1 27.1c1 .7 1.2 2 .5 3-.5.5-1.1.8-1.8.8zM63.9 125.5c-.2 0-.4 0-.7-.1l-32.4-10.8c-1.1-.4-1.7-1.6-1.3-2.7.4-1.1 1.6-1.7 2.7-1.3l32.4 10.8c1.1.4 1.7 1.6 1.3 2.7-.3.8-1.1 1.4-2 1.4zM142 43.1c-1.2 0-2-1-2-2.1v-32.2c0-1.2.8-2.1 2-2.1s2 1 2 2.1v32.2c0 1.1-.8 2.1-2 2.1zM206.2 62.5c-.7 0-1.3-.3-1.7-.9-.7-1-.5-2.3.5-3l24.8-24.5c1-.7 2.3-.5 3 .5.7 1 .5 2.3-.5 3l-24.8 24.5c-.4.2-.9.4-1.3.4zM222.7 131c-.9 0-1.7-.6-2-1.5-.4-1.1.2-2.3 1.3-2.7l32.4-10.8c1.1-.4 2.3.2 2.7 1.3.4 1.1-.2 2.3-1.3 2.7l-32.4 10.8c-.3.1-.5.2-.7.2z"/></g></svg>