<svg xmlns="http://www.w3.org/2000/svg" viewBox="0 0 288 104.5" enable-background="new 0 0 288 104.5"><path fill="#2B2B2B" d="M58.7 80.4h.2v.1h-.1c-.1 0-.1-.1-.1-.1zM40.6 58.3c-2.8 0-5.2 2.2-6.8 4.3-2.5-2.8-6-3.3-10-3.3-11.3 0-19 9.8-20.4 19-1 6 .3 11.6 3.5 15.3 2.8 3.2 6.8 5 11.6 5 3.1 0 6.3-.7 9.1-2.5l-.3 2h4.1c3.9 0 7.2-4.1 7.8-7.9l4.8-31.9h-3.4zm-10 20.2c-.8 5-4.3 10-10.3 10-2 0-3.6-.7-4.7-2-1.4-1.7-2-4.4-1.5-7.4.8-4.8 4.5-9.9 10-9.9 2.2 0 3.9.7 5.1 2 1.4 1.8 1.9 4.4 1.4 7.3zM69.9 67.1l-3.1 4.7s-.5-3-4.2-3.2c-4-.2-5.9 3.4-7 10.4l-1.8 11.7c-.6 4-4 7.4-8 7.4h-3.9l4.8-31.6c.6-4 4-8.1 8.1-8.1h3.9l-.3 1.6c2.1-1.3 4.4-1.7 6.9-1.7 2 0 3.9 1.3 4.8 3.1 1 1.8.9 4-.2 5.7zM104.7 64.5c-3.2-3.7-7.9-5.8-13.3-5.8-10.9 0-20.8 8.5-22.5 19.3-.9 5.4.4 10.5 3.6 14.2 3.2 3.7 7.9 5.8 13.3 5.8 10.9 0 20.8-8.5 22.5-19.3.9-5.4-.4-10.5-3.6-14.2zm-7.1 13.5c-.8 5.2-5.8 9.5-10.8 9.5-2.2 0-4.2-.9-5.5-2.4-1.4-1.7-2-4-1.6-6.4.8-5.2 5.8-9.5 10.8-9.5 2.3 0 4.2.9 5.6 2.4 1.3 1.7 1.9 4 1.5 6.4zm13.4 0c-.2 1-.3 2-.3 3 .2-.6.3-1.2.4-1.9.2-1.1.3-2.1.3-3.2-.2.8-.3 1.5-.4 2.1zM104.7 64.5c-3.2-3.7-7.9-5.8-13.3-5.8-10.9 0-20.8 8.5-22.5 19.3-.9 5.4.4 10.5 3.6 14.2 3.2 3.7 7.9 5.8 13.3 5.8 10.9 0 20.8-8.5 22.5-19.3.9-5.4-.4-10.5-3.6-14.2zm-7.1 13.5c-.8 5.2-5.8 9.5-10.8 9.5-2.2 0-4.2-.9-5.5-2.4-1.4-1.7-2-4-1.6-6.4.8-5.2 5.8-9.5 10.8-9.5 2.3 0 4.2.9 5.6 2.4 1.3 1.7 1.9 4 1.5 6.4zM146.8 64.5c-3.2-3.7-7.9-5.8-13.3-5.8-10.2 0-19.5 7.5-22.1 17.3-.2.6-.3 1.3-.4 2-.2 1-.3 2-.3 3 0 4.3 1.3 8.2 3.9 11.2 3.2 3.7 7.9 5.8 13.3 5.8 10.9 0 20.8-8.5 22.5-19.3.9-5.4-.4-10.5-3.6-14.2zm-7.1 13.5c-.8 5.2-5.8 9.5-10.8 9.5-2.2 0-4.2-.9-5.6-2.4-1.4-1.7-2-4-1.6-6.4.8-5.2 5.8-9.5 10.8-9.5 2.3 0 4.2.9 5.6 2.4 1.4 1.7 2 4 1.6 6.4zM186.4 75.4l-2.4 15.5c-.6 3.8-3.8 7.1-7.6 7.1h-4.3l3.4-21.9c.4-2.4.6-5.2-.2-6.2-.6-.7-2.1-1-3.3-1-5.8 0-6.9 4.2-8 11.1l-1.6 10.4c-.6 4.1-4.1 7.6-8.3 7.6h-3.7l4.9-32.4c.6-3.5 3.6-7.3 7.1-7.3h4.7l-.2 1.8c2.3-1.3 5-1.7 7.7-1.7 4.2 0 7.4 1.4 9.4 3.8 2.6 2.8 3.3 7.1 2.4 13.2zM224.4 64.5c-3.2-3.7-7.9-5.8-13.3-5.8-10.9 0-20.8 8.5-22.5 19.3-.9 5.4.4 10.5 3.6 14.2 3.2 3.7 7.9 5.8 13.3 5.8 10.9 0 20.8-8.5 22.5-19.3.9-5.4-.4-10.5-3.6-14.2zm-7.1 13.5c-.8 5.2-5.8 9.5-10.8 9.5-2.2 0-4.2-.9-5.6-2.4-1.4-1.7-2-4-1.6-6.4.8-5.2 5.8-9.5 10.8-9.5 2.3 0 4.2.9 5.6 2.4 1.4 1.7 1.9 4 1.6 6.4zM284.5 62.9l-17 26.3c-1.2 1.8-3.2 2.9-5.3 2.9-2.9 0-5.4-1.8-6.2-4.6l-2.3-8.1-13 20.9-13.7-42h5.1c4 0 7.6 3.4 8.8 7.3l3.3 11.3 4.2-7c1.4-2.3 3.8-3.7 6.5-3.7 3.5 0 6.4 2.3 7.3 5.7l1.4 5 14.5-23.9h1.2c2.2 0 4.3 1.6 5.4 3.5 1.1 2 1 4.6-.2 6.4zM105.4 35.9c-3.7 13.4-18.3 8.6-19 8.3l2.1 2.3c-3.4 1-7.5-2.2-7.5-2.2s-.1 6.4 5.3 12.1c-4 .8-7.7 2.7-10.9 5.3-.5-4.1-1.5-9.1-3.4-15-8.3-25.7 6.9-42.9 6.9-42.9 5.3 7.1-2 22.8-2.5 23.9l10.8-13.9c2.5 6-6.8 15.9-7.2 16.3.1-.1 1.7-.4 9.3 4.5 7.9 5.3 16.1 1.3 16.1 1.3z"/></svg>