<svg xmlns="http://www.w3.org/2000/svg" viewBox="0 0 288 288" enable-background="new 0 0 288 288"><g fill="#F44EA8"><path d="M93 125c-.4 0-.8-.1-1.2-.4l-28.2-22.9c-.9-.6-1.1-1.9-.5-2.8.6-.9 1.9-1.1 2.8-.5l28.2 22.9c.9.6 1.1 1.9.5 2.8-.4.6-1 .9-1.6.9zM110.2 97.9c-.4 0-.8-.1-1.2-.4l-14.6-27.8c-.9-.6-1.1-1.9-.5-2.8.6-.9 1.9-1.1 2.8-.5l14.7 27.9c.9.6 1.1 1.9.5 2.8-.4.5-1.1.8-1.7.8zM80 153.6c-.2 0-.4 0-.6-.1l-30.4-10.2c-1-.3-1.6-1.5-1.3-2.5.3-1 1.5-1.6 2.5-1.3l30.4 10.1c1 .3 1.6 1.5 1.3 2.5-.3.9-1.1 1.5-1.9 1.5z"/><path stroke="#F44EA8" stroke-width="2" stroke-miterlimit="10" d="M87.5 176.5c-.4 0-.9-.1-1.2-.4-.6-.4-1-1.2-.9-1.9 1.4-21 8.4-41.2 19.8-56.9 11.2-15.5 25.8-25.6 41.1-28.4.6-.1.9.1 1.4.5.5.4.4 1 .4 1.6v68.6c0 1.1-.5 2.1-1.6 2.1-6.9.5-14.2 1.5-19.8 2.6-19.1 3.7-33 9.7-38.2 12-.5.1-.7.2-1 .2zm54.5-82.9c-26 6.8-49.6 39.2-53.3 77.3 6.8-2.9 19-7.7 35.3-10.9 5.3-1 11.9-1.9 17.9-2.5v-63.9zM219.7 176.2c-.3 0-.7-.1-1-.2-20.1-10-39.5-14.7-60.9-14.7h-1.3c-.6 0-1.8-.2-2.2-.6-.4-.4-1.3-.9-1.3-1.5v-69c0-.6.9-1.1 1.3-1.5.4-.4 1.3-.6 1.9-.6 17.2.3 33.4 9.4 45.3 25.6 11.4 15.6 18.7 37 20.3 60.3.1.8-.3 1.5-.9 1.9-.4.2-.8.3-1.2.3zm-62.7-19.2c20 .1 40.2 4.4 59.4 13.5-2-21.1-9.1-40.3-19.5-54.4-10.7-14.6-24-22.8-40-23.8v64.7zM156 277.6c-18.2 0-35.3-9.7-48.3-27.2-12.8-17.3-20-40.5-20.5-65.2 0-.8.4-1.6 1.2-2 7-3.6 21.7-10.1 41.1-13.8 5.9-1.1 11.8-2 17.6-2.4 3.3-.3 6.6-.4 9.8-.5h1.7c21.8 0 40.9 5.1 61.9 16.6.7.4 1.1 1.1 1.1 1.9-.8 52.9-29 92.6-65.6 92.6zm-64.4-91.1c.7 23.3 7.6 45.1 19.6 61.4 12.1 16.4 28 25.5 44.8 25.5 16.6 0 32-9 43.3-25.5 11.1-16.1 17.5-37.9 18.1-61.5-19.9-10.7-38.1-15.5-58.7-15.5h-1.7c-3.1 0-6.3.2-9.5.4-5.7.5-11.4 1.2-17.1 2.4-17.8 3.4-31.6 9.3-38.8 12.8zM150.5 85.2c-.3 0-.5 0-.8-.1-1.2-.4-1.4-1.5-1.6-2.6-2.9-13.3-12.7-22.8-29.1-28.2-13.7-4.5-20.7-14.2-24.2-21.5-3.8-8.1-4.8-16.2-4.2-19.4.2-1.2 1.3-1.9 2.5-1.7 1.2.2 1.9 1.3 1.7 2.5-.3 1.7.1 8.8 3.9 16.8 3.1 6.6 9.4 15.3 21.7 19.3 11.4 3.7 20.1 9.5 25.7 17.2 4.5 6.2 5.7 11.8 6.3 14.2 0 .2.1.4.1.5.3.5.3 1.2.1 1.7-.5.8-1.3 1.3-2.1 1.3z"/></g></svg>