<svg xmlns="http://www.w3.org/2000/svg" viewBox="0 0 288 288" enable-background="new 0 0 288 288"><g fill="#F44EA8"><path d="M120.6 192.7l-5.9-3.5 23.6-27.1c5.5 12.8-17.7 30.1-17.7 30.6zM170 203.6c-6.9 25-34.3 16.1-35.7 15.6l3.9 4.3c-6.3 2-14-4.1-14-4.1s-.2 12.9 11.2 23.7c-.6-.1-15.3 3.4-21.5 9.2-.8-7.7-2.7-17.2-6.4-28.7-15.5-48.3 13-80.4 13-80.4 10.1 13.4-4.2 43.6-4.8 44.9l6.7 4.5c.8 0 2.4-1.4 17.4 8.5 14.8 9.9 30.2 2.5 30.2 2.5z"/><path stroke="#EA549D" stroke-width="2" stroke-miterlimit="10" d="M201.4 114.1c-1.5 0-2.6-1.2-2.6-2.6 0-35.2-28.6-63.8-63.8-63.8-35.2 0-63.8 28.6-63.8 63.8 0 1.5-1.2 2.6-2.6 2.6s-2.6-1.2-2.6-2.6c0-38.1 31-69 69-69 38.1 0 69 31 69 69 .1 1.4-1.1 2.6-2.6 2.6zM243.8 275.9h-222.3c-1 0-1.9-.4-2.6-1.2-.6-.8-.9-1.8-.8-2.7l20.6-123.6c.2-1.4 1.6-2.4 3-2.2 1.4.2 2.4 1.6 2.2 3l-20.2 121.4h217.8l-24-140h-176.1c-1.5 0-2.6-1.2-2.6-2.6 0-1.5 1.2-2.6 2.6-2.6h177.8c1.7 0 3.1 1.2 3.3 2.8l24.6 143.7c.2 1-.1 2-.7 2.8s-1.6 1.2-2.6 1.2z"/></g><path stroke="#EA549D" stroke-width="5" stroke-linecap="round" stroke-miterlimit="10" d="M254.7 270.7l11.2-22.4c1-2 1.2-4.4.6-6.5l-38.8-118" fill="none"/></svg>