<svg xmlns="http://www.w3.org/2000/svg" viewBox="0 0 288 288" enable-background="new 0 0 288 288"><g fill="#F44EA8" stroke="#F44EA8" stroke-width="2" stroke-miterlimit="10"><path d="M198.9 273.6h-.6l-66.8-2.6c-19.6-.8-35.1-17.4-34.4-37l3-89c.1-2 1.7-3.6 3.7-3.6h.6c11.4 0 68.1-4 69.9-83.1.2-9.7 8.2-17.6 17.8-17.6 2.5 0 4.9.5 7.1 1.5 9.3 4.1 17 13.5 20.4 25.2 4.3 14.4 4.5 39-18 75l32.9 3c5.3 0 10.4 2.4 13.9 6.4 3.5 4.1 5.1 9.5 4.4 14.8-1.1 7.5-6.5 13.6-13.9 15.4l-.6.1c6.2 4.8 8.8 13.2 6.4 22-2 6.9-6.4 10.6-14.4 12.2l-4.5.8c2.6 1.8 5.2 4.3 6.5 7.7 1.6 3.9 1.3 8.2-.9 12.8-2.4 6.9-8.8 11.5-16.1 11.5l-3.3.2c3.5 5.4 3.4 12.5-.7 17.9-2.8 4-7.5 6.4-12.4 6.4zm-93.6-126.8l-2.9 87.4c-.6 16.7 12.6 30.8 29.2 31.4l66.8 2.6c3.3.1 6.6-1.4 8.6-4.1 3.3-4.5 2.6-10.7-1.8-14.2-1-.8-1.4-2.1-1-3.4.4-1.2 1.5-2.1 2.8-2.2l8.3-.5c5 0 9.5-3.2 11.1-8l.1-.3c1.5-3.2 1.8-6.1.8-8.6-1.8-4.5-7.4-7-9.7-7.8-1.3-.5-2.1-1.8-2-3.2.1-1.4 1.2-2.5 2.5-2.8l11.2-2c6-1.2 8.8-3.5 10.2-8.4 2.4-8.3-1.4-16.2-8.8-18.4-1.4-.4-2.3-1.7-2.2-3.1.1-1.4 1.1-2.5 2.4-2.8l6.7-1.6c5.2-1.3 9.1-5.6 9.8-10.9.5-3.8-.6-7.6-3.1-10.5-2.5-2.9-6.1-4.5-9.9-4.5h-.2l-36.5-3.4c-1.1-.1-2.1-.7-2.7-1.7-.6-1-.5-2.2.1-3.2 23.4-36 23.4-59.9 19.3-73.6-3-10.2-9.5-18.3-17.4-21.8-1.6-.7-3.3-1.1-5-1.1-6.7 0-12.3 5.5-12.4 12.3-.4 19.3-4.1 35.9-10.9 49.2-5.7 11.1-13.5 20.1-23.3 26.7-16.3 10.9-33.7 12.3-40.1 12.5zM84.7 269.3h-37.6c-1.2 0-2.3-.5-3.2-1.3-.8-.9-1.3-2-1.2-3.2l4-119.1c.1-2.4 2-4.2 4.4-4.2h37.6c1.2 0 2.3.5 3.2 1.3.8.9 1.3 2 1.2 3.2l-4 119.1c-.1 2.3-2 4.2-4.4 4.2zm-36.6-5.5h35.6l3.9-117.1h-35.6l-3.9 117.1z"/></g></svg>